<?xml version="1.0" encoding="UTF-8" standalone="no"?>
<!-- Created with Inkscape (http://www.inkscape.org/) -->

<svg
   xmlns:dc="http://purl.org/dc/elements/1.1/"
   xmlns:cc="http://creativecommons.org/ns#"
   xmlns:rdf="http://www.w3.org/1999/02/22-rdf-syntax-ns#"
   xmlns:svg="http://www.w3.org/2000/svg"
   xmlns="http://www.w3.org/2000/svg"
   xmlns:sodipodi="http://sodipodi.sourceforge.net/DTD/sodipodi-0.dtd"
   xmlns:inkscape="http://www.inkscape.org/namespaces/inkscape"
   width="210mm"
   height="297mm"
   viewBox="0 0 210 297"
   version="1.1"
   id="svg8"
   inkscape:version="0.92.4 (e05b578f1, 2019-02-26, custom)"
   sodipodi:docname="drawing-1.svg">
  <defs
     id="defs2" />
  <sodipodi:namedview
     id="base"
     pagecolor="#ffffff"
     bordercolor="#666666"
     borderopacity="1.0"
     inkscape:pageopacity="0.0"
     inkscape:pageshadow="2"
     inkscape:zoom="1.979899"
     inkscape:cx="253.44369"
     inkscape:cy="856.07305"
     inkscape:document-units="mm"
     inkscape:current-layer="svg57"
     showgrid="false"
     inkscape:window-width="2400"
     inkscape:window-height="1421"
     inkscape:window-x="-9"
     inkscape:window-y="-9"
     inkscape:window-maximized="1" />
  <metadata
     id="metadata5">
    <rdf:RDF>
      <cc:Work
         rdf:about="">
        <dc:format>image/svg+xml</dc:format>
        <dc:type
           rdf:resource="http://purl.org/dc/dcmitype/StillImage" />
        <dc:title></dc:title>
      </cc:Work>
    </rdf:RDF>
  </metadata>
  <g
     inkscape:label="Layer 1"
     inkscape:groupmode="layer"
     id="layer1">
    <svg
       id="svg57"
       version="1.1">
      <g
         id="g55">
	<g
   id="frame">
		<rect
   id="rect40"
   height="100"
   width="100"
   fill="none" />

	</g>

	<g
   id="shape">
		<path
   id="path43"
   d="M85,18.614c-7.623-5.918-17.115-9.492-27-10.742V0H42v7.872c-9.885,1.25-19.377,4.824-27,10.742V83.97    c7.623,5.918,17.115,9.492,27,10.742V100h16v-5.288c9.885-1.25,19.377-4.824,27-10.742V18.614z"
   fill="#a9d1f9" />

	</g>

	<g
   id="dark">
		<path
   id="path46"
   d="M83,19.149c-7.52-5.232-16.605-8.361-26-9.397V0H43v9.752c-9.395,1.036-18.48,4.165-26,9.397v64.286    c7.52,5.232,16.605,8.361,26,9.397V100h14v-7.168c9.395-1.036,18.48-4.165,26-9.397V19.149z"
   fill="#7dabd8" />

	</g>

	<g
   id="light">
		<path
   id="path49"
   d="M55,11.567V0H45v11.567c-9.278,0.727-18.344,3.477-26,8.264v2.783V79.97v2.783    c7.656,4.787,16.722,7.537,26,8.264V100h10v-8.983c9.278-0.727,18.344-3.477,26-8.264V79.97V22.614v-2.783    C73.344,15.044,64.278,12.295,55,11.567z"
   fill="#c6e2ff" />

	</g>

	<g
   id="hlight">
		<path
   id="path52"
   d="M53.5,12.973V0h-7v12.973c-9.201,0.504-18.248,3.005-26,7.486v61.665c7.752,4.482,16.799,6.983,26,7.486    V100h7V89.611c9.201-0.504,18.248-3.005,26-7.486V20.459C71.748,15.978,62.701,13.477,53.5,12.973z"
   fill="#e0efff" />

	</g>

</g>
      <rect
         style="fill:#ececec;fill-opacity:1;stroke-width:0.37419689"
         id="rect78"
         width="59.066566"
         height="63.610149"
         x="20.312487"
         y="19.975134"
         inkscape:label="{&quot;attr&quot;:&quot;bar&quot;,&quot;max&quot;:2,&quot;min&quot;:0,&quot;tag&quot;:&quot;level-mains&quot;}" />
    </svg>
  </g>
</svg>
